<?xml version="1.0" standalone="no"?><!DOCTYPE svg PUBLIC "-//W3C//DTD SVG 1.1//EN" "http://www.w3.org/Graphics/SVG/1.1/DTD/svg11.dtd"><svg t="1543315026112" class="icon" style="" viewBox="0 0 1024 1024" version="1.1" xmlns="http://www.w3.org/2000/svg" p-id="10463" xmlns:xlink="http://www.w3.org/1999/xlink" width="200" height="200"><defs><style type="text/css"></style></defs><path d="M640 384h-256c-12.8 0-25.6 12.8-25.6 25.6s12.8 25.6 25.6 25.6h256c12.8 0 25.6-12.8 25.6-25.6s-12.8-25.6-25.6-25.6zM640 512h-256c-12.8 0-25.6 12.8-25.6 25.6s12.8 25.6 25.6 25.6h256c12.8 0 25.6-12.8 25.6-25.6s-12.8-25.6-25.6-25.6zM640 640h-256c-12.8 0-25.6 12.8-25.6 25.6s12.8 25.6 25.6 25.6h256c12.8 0 25.6-12.8 25.6-25.6s-12.8-25.6-25.6-25.6z" p-id="10464"></path><path d="M947.2 870.4h-25.6v-460.8c0-12.8-12.8-25.6-25.6-25.6h-128v-76.8c0-28.16-23.04-51.2-51.2-51.2h-179.2v-51.2h25.6c12.8 0 25.6-12.8 25.6-25.6 0-15.36-12.8-25.6-25.6-25.6h-25.6v-25.6c0-12.8-12.8-25.6-25.6-25.6s-25.6 12.8-25.6 25.6v25.6h-25.6c-12.8 0-25.6 10.24-25.6 25.6 0 12.8 12.8 25.6 25.6 25.6h25.6v51.2h-179.2c-28.16 0-51.2 23.04-51.2 51.2v179.2h-128c-12.8 0-25.6 12.8-25.6 25.6v358.4h-25.6c-12.8 0-25.6 12.8-25.6 25.6s12.8 25.6 25.6 25.6h870.4c12.8 0 25.6-12.8 25.6-25.6s-12.8-25.6-25.6-25.6z m-793.6-332.8h102.4v332.8h-102.4v-332.8z m409.6 332.8h-102.4v-51.2h102.4v51.2z m51.2 0v-76.8c0-12.8-12.8-25.6-25.6-25.6h-153.6c-12.8 0-25.6 12.8-25.6 25.6v76.8h-102.4v-563.2h409.6v563.2h-102.4z m153.6 0v-435.2h102.4v435.2h-102.4z" p-id="10465"></path></svg>