<?xml version="1.0" standalone="no"?><!DOCTYPE svg PUBLIC "-//W3C//DTD SVG 1.1//EN" "http://www.w3.org/Graphics/SVG/1.1/DTD/svg11.dtd"><svg t="1543314997850" class="icon" style="" viewBox="0 0 1024 1024" version="1.1" xmlns="http://www.w3.org/2000/svg" p-id="9991" xmlns:xlink="http://www.w3.org/1999/xlink" width="200" height="200"><defs><style type="text/css"></style></defs><path d="M797.217 174.331h-573.888c-45.598 0-78.696 35.256-78.696 83.821v421.086c0 46.947 31.567 78.515 78.696 78.515h168.182l100.639 97.762c5.396 5.396 12.502 8.094 19.607 8.094 7.194 0 14.3-2.788 19.786-8.184l98.751-97.582h166.924c46.947 0 78.516-31.568 78.516-78.516v-421.176c0-48.565-33.008-83.821-78.516-83.821zM819.971 679.238c0 16.189-6.565 22.754-22.755 22.754h-177.895c-0.193-0.005-0.42-0.008-0.649-0.008-7.72 0-14.709 3.13-19.766 8.191l-87.329 86.069-89.037-86.25c-5.666-5.575-13.042-8.274-20.416-8.004h-178.793c-16.279 0-22.934-6.565-22.934-22.755v-421.084c0-8.455 2.248-28.061 22.934-28.061h573.888c20.505 0 22.754 19.606 22.754 28.060v421.086z" p-id="9992"></path><path d="M292.311 463.21c0 0 0 0 0 0 0 27.319 22.146 49.464 49.464 49.464 27.319 0 49.465-22.146 49.465-49.464 0 0 0 0 0 0 0-27.319-22.146-49.465-49.465-49.465-27.319 0-49.464 22.146-49.464 49.464zM468.587 463.21c0 0 0 0 0 0 0 27.319 22.147 49.465 49.465 49.465 27.319 0 49.465-22.147 49.465-49.465 0 0 0 0 0 0 0 0 0 0 0 0 0-27.319-22.147-49.465-49.465-49.465-27.319 0-49.465 22.147-49.465 49.465s0 0 0 0zM643.695 462.579c0 27.319 22.146 49.465 49.464 49.465s49.465-22.146 49.465-49.465c0-27.319-22.146-49.464-49.465-49.464-27.319 0-49.464 22.146-49.464 49.465 0 0 0 0 0 0z" p-id="9993"></path></svg>